<svg width="271" height="412" viewBox="0 0 271 412" fill="none" xmlns="http://www.w3.org/2000/svg">
<path fill-rule="evenodd" clip-rule="evenodd" d="M103.814 135.643C107.296 131.956 108.731 124.873 108.173 120.918C107.773 118.559 106.588 116.403 104.811 114.8C103.033 113.198 100.766 112.242 98.3776 112.089C92.7744 111.774 86.383 112.181 81.6793 115.21C78.2734 117.585 75.1539 120.347 72.3833 123.439C72.9422 121.21 73.0573 118.892 72.7218 116.619C72.1865 112.652 68.3217 112.036 66.0701 112.985C65.3797 113.202 64.7572 113.594 64.2635 114.123C63.7697 114.652 63.4215 115.3 63.2528 116.004C63.0565 116.821 62.9827 117.662 63.0339 118.5C62.423 117.533 61.471 116.831 60.3666 116.532C59.6143 116.403 58.8429 116.436 58.1046 116.63C57.3663 116.824 56.6782 117.175 56.087 117.658C54.8615 118.481 53.9836 119.728 53.622 121.159C53.198 122.855 54.5032 125.721 54.5032 125.721C53.3142 125.86 52.2169 126.428 51.4174 127.319C50.0021 128.695 49.1035 130.516 48.8724 132.476C48.6885 134.016 48.9725 135.576 49.6873 136.953C50.5055 138.038 51.4198 139.047 52.419 139.969C51.7452 140.578 51.12 141.24 50.5491 141.947C49.4424 143.173 48.5993 144.613 48.0722 146.178C47.5331 148.185 47.5208 150.298 48.0363 152.312C48.4714 153.785 49.43 155.048 50.7316 155.864C52.0332 156.68 53.5882 156.992 55.1038 156.741C54.1643 158.087 53.4101 159.554 52.8614 161.101C52.6212 161.949 52.5722 162.84 52.7179 163.709C52.8636 164.579 53.2004 165.405 53.7039 166.128C55.2272 167.796 56.884 169.336 58.6577 170.734L62.1997 178.163L65.8374 176.876C65.8374 176.876 66.3892 180.337 68.6068 181.71C70.5884 182.82 72.9186 183.134 75.1233 182.588C76.5784 182.192 77.8678 179.908 77.8678 179.908C77.8678 179.908 79.6779 182.531 82.2027 182.888C84.7274 183.245 98.419 179.63 98.419 179.63L86.853 147.218C86.853 147.218 100.326 139.329 103.811 135.643H103.814Z" fill="#061428"/>
<path fill-rule="evenodd" clip-rule="evenodd" d="M100.111 125.057C102.546 130.06 104.257 135.383 105.194 140.867C106.022 146.678 106.152 153.965 105.186 158.159C104.456 161.549 102.544 164.57 99.7914 166.681C97.7091 168.228 93.113 170.254 88.8039 168.97C84.4948 167.686 81.1322 165.521 79.2559 162.825C79.7832 161.077 80.0468 159.26 80.0377 157.434C80.0156 155.761 79.7523 154.101 79.2559 152.503C76.7449 153.404 74.9063 151.797 74.3168 149.265C73.7272 146.734 74.9919 144.891 77.3244 145.204C79.6569 145.517 83.3028 142.984 82.6691 139.486C85.5596 139.506 88.4203 138.902 91.0555 137.714C93.5516 136.69 95.6771 134.93 97.1498 132.669C98.6215 130.429 100.113 127.059 100.113 125.063L100.111 125.057Z" fill="#E88D95"/>
<path fill-rule="evenodd" clip-rule="evenodd" d="M81.1882 115.531C81.0963 115.715 80.0367 116.375 79.7258 116.658C78.9422 117.435 78.2074 118.26 77.5258 119.128C75.6373 121.332 74.0985 123.814 72.9628 126.486C71.173 130.783 69.6268 135.742 69.4751 140.44C69.3828 142.027 69.5275 143.619 69.9046 145.163C70.0376 145.708 70.1985 146.246 70.3866 146.774C70.4463 146.95 70.8796 147.794 70.7094 147.794C70.03 147.108 69.4022 146.372 68.8312 145.594C67.3946 143.487 65.831 141.598 65.235 139.045C64.6353 136.749 64.3284 134.386 64.3217 132.013C64.567 126.284 67.0308 120.875 71.1923 116.929C73.1339 115.002 76.0367 113.387 78.8143 113.387C80.1542 113.407 81.448 113.879 82.4851 114.727L81.1882 115.534V115.531Z" fill="#A0DEFF"/>
<path fill-rule="evenodd" clip-rule="evenodd" d="M129.513 367.307C131.911 369.268 135.341 371.2 137.423 372.681C139.131 374.006 141.031 375.063 143.057 375.816C144.673 376.298 144.944 377.998 143.538 378.462C142.132 378.925 139.767 378.653 137.217 378.605L128.59 378.445C126.065 378.397 122.598 378.515 120.967 377.623C119.336 376.731 119.335 374.745 119.335 373.153C119.335 371.561 121.24 367.517 121.24 367.517C121.24 367.517 127.12 365.345 129.518 367.307H129.513Z" fill="#061428"/>
<path fill-rule="evenodd" clip-rule="evenodd" d="M61.7454 341.661C61.3195 344.053 61.1935 347.088 60.8983 350.692C60.7572 354.25 60.8281 357.812 61.1108 361.361C61.2027 363.678 59.6778 365.054 58.1887 362.601C56.1324 358.979 54.4548 355.154 53.1824 351.188C52.0217 347.357 51.9003 342.734 51.3346 340.757C50.769 338.78 50.3026 336.583 51.1433 336.41L57.6249 335.074C57.6249 335.074 62.1694 339.272 61.7454 341.663V341.661Z" fill="#061428"/>
<path fill-rule="evenodd" clip-rule="evenodd" d="M127.544 218.31C128.033 221.839 129.313 229.807 130.144 237.073C130.976 244.339 130.668 254.191 131.064 258.525C131.46 262.859 131.505 275.145 131.616 278.76L131.905 288.136C131.951 289.642 131.881 310.707 131.383 316.618C130.886 322.528 130.43 334.348 130.215 342.123L129.838 355.768L129.519 367.31L121.241 367.519C121.241 367.519 118.178 359.425 116.429 353.011C114.679 346.597 114.438 343.055 113.346 336.847C112.254 330.64 110.357 323.567 109.713 320.279C109.068 316.992 106.757 308.15 106.757 308.15L114.912 284.165L108.29 242.713L117.579 219.259C117.579 219.259 127.053 214.787 127.54 218.316L127.544 218.31Z" fill="#A0DEFF"/>
<path fill-rule="evenodd" clip-rule="evenodd" d="M94.2057 219.254C92.3661 221.059 90.6186 224.68 89.3309 227.249C88.0432 229.818 87.0977 234.958 86.9009 238.163C86.701 243.775 86.8285 249.393 87.2826 254.989C87.7738 259.932 89.72 265.827 91.9734 270.804L97.1241 282.16C92.5545 286.927 88.4395 292.111 84.8324 297.642C79.4352 306.133 73.8633 311.365 69.0833 317.532L56.6904 333.518L61.819 342.12L64.3024 340.189C64.3024 340.189 70.3903 335.03 76.4303 330.744L98.3611 315.184C104.654 310.719 113.161 301.939 117.568 297.39C121.974 292.841 122.727 288.625 122.882 284.37C123.036 280.115 122.247 264.466 121.905 259.108L120.557 237.98L119.965 228.708C119.965 228.708 123.634 224.349 124.968 222.27L127.462 218.379C127.459 217.577 127.383 216.776 127.235 215.988L126.258 210.415C126.025 209.087 124.201 207.136 124.201 207.136C124.201 207.136 96.0286 217.446 94.1937 219.251L94.2057 219.254Z" fill="#A0DEFF"/>
<path fill-rule="evenodd" clip-rule="evenodd" d="M136.306 130.642C135.926 131.705 135.48 132.744 134.97 133.751C132.764 137.686 129.293 140.76 125.122 142.477C122.588 143.533 119.212 144.248 116.71 142.624C112.779 140.072 113.554 134.696 114.917 130.88C115.486 129.567 116.272 128.359 117.242 127.307C117.572 126.922 117.978 126.657 118.334 126.304L123.805 126.741C123.713 126.793 123.508 126.763 123.396 126.815C123.091 127.003 122.817 127.237 122.584 127.509C121.432 128.562 120.107 130.042 119.857 131.648C119.812 131.974 119.804 132.303 119.832 132.63C119.862 133.056 119.999 133.467 120.23 133.825C121.028 134.89 122.924 134.161 123.755 133.582C124.431 133.112 125.063 132.584 125.645 132.002C126.334 131.216 126.87 130.307 127.223 129.323L136.306 130.639V130.642Z" fill="#EDC152"/>
<path fill-rule="evenodd" clip-rule="evenodd" d="M114.648 140.381C113.181 137.602 113.878 133.789 114.917 130.88C115.486 129.567 116.272 128.359 117.242 127.307C117.572 126.922 117.978 126.657 118.334 126.304L123.805 126.741C123.713 126.793 123.508 126.763 123.396 126.815C123.091 127.003 122.817 127.237 122.584 127.509C121.431 128.562 120.107 130.042 119.857 131.648C119.812 131.974 119.803 132.303 119.832 132.63C119.862 133.056 119.999 133.467 120.23 133.825C121.028 134.89 122.924 134.161 123.755 133.582C124.43 133.112 125.063 132.584 125.645 132.002C126.334 131.216 126.87 130.307 127.223 129.323L134.279 130.345C134.287 130.903 134.16 131.455 133.908 131.954C133.657 132.452 133.288 132.882 132.834 133.206C132.422 133.488 131.971 133.71 131.496 133.863C130.968 134.003 130.529 133.933 130.132 134.387C129.478 135.133 129.64 136.158 129.266 137.011C128.997 137.559 128.527 137.982 127.954 138.192C127.329 138.403 126.658 138.439 126.013 138.297C125.529 138.211 124.844 137.872 124.357 138.087C123.002 138.69 123.003 140.719 121.76 141.497C121.454 141.663 121.111 141.75 120.762 141.75C120.414 141.75 120.071 141.663 119.765 141.497C118.629 140.993 117.43 139.908 116.17 139.739C115.881 139.691 115.584 139.726 115.314 139.84C115.044 139.954 114.812 140.142 114.645 140.383L114.648 140.381Z" fill="#D2416E"/>
<path fill-rule="evenodd" clip-rule="evenodd" d="M120.17 167.118C123.568 166.382 127.022 165.932 130.496 165.775L141.561 164.9C144.115 164.698 147.098 164.925 147.08 162.83C147.061 160.735 144.345 148.854 142.8 144.409C141.255 139.964 141.072 133.604 139.744 132.702C138.416 131.801 139.312 131.599 138.128 131.606C137.027 131.638 135.951 131.277 135.093 130.586C134.291 129.923 133.545 130.586 132.448 130.586C131.352 130.586 128.267 132.459 124.972 130.586C121.676 128.713 121.832 127.596 121.667 126.97C121.501 126.345 120.685 127.286 118.965 126.86C117.244 126.434 117.229 123.692 118.312 122.276L121.121 118.597C122.204 117.181 125.52 116.33 127.526 116.312C129.532 116.295 131.941 116.272 134.376 116.252C136.812 116.231 139.343 116.872 140.21 117.751C141.289 118.843 142.167 120.348 143.069 121.261C145.009 123.742 146.752 126.37 148.284 129.121L153.131 139.586C154.57 142.693 158.225 147.864 160.431 155.345C162.638 162.826 165.149 165.81 164.71 169.853C164.271 173.897 163.054 174.28 158.153 176.877C153.251 179.473 145.792 185.017 137.423 187.865L124.028 192.423C124.028 192.423 117.18 167.93 120.17 167.118Z" fill="#E88D95"/>
<path fill-rule="evenodd" clip-rule="evenodd" d="M15.8935 177.453C15.2281 177.172 14.6763 176.676 14.3261 176.044C13.976 175.412 13.8478 174.681 13.962 173.967C14.0007 172.181 15.7914 170.3 18.5535 170.131C21.3155 169.962 27.6251 170.359 30.5527 170.205C33.4803 170.05 34.9427 170.402 36.3959 171.538C37.1 172.027 37.5947 172.763 37.7821 173.599C37.9695 174.436 37.8359 175.312 37.4077 176.054C37.1049 176.657 36.6258 177.152 36.0342 177.475C35.4427 177.798 34.7668 177.933 34.0965 177.863C32.3103 177.898 17.7514 178.49 15.9009 177.453H15.8935Z" fill="#EDC152"/>
<path fill-rule="evenodd" clip-rule="evenodd" d="M41.1115 177.76C40.3717 177.308 39.7888 176.639 39.442 175.844C39.0952 175.05 39.0011 174.168 39.1726 173.318C39.5828 171.663 40.2018 170.724 42.6613 170.299C45.5057 169.756 48.3936 169.471 51.2896 169.448C54.7212 169.448 58.9447 169.816 60.2655 170.299C60.9655 170.511 61.5578 170.983 61.9205 171.618C62.2833 172.253 62.3888 173.002 62.2154 173.713C62.0601 174.64 61.6172 175.494 60.9494 176.156C60.2815 176.817 59.4225 177.252 58.4941 177.398C56.4126 177.647 42.5362 178.52 41.1106 177.76H41.1115Z" fill="#EDC152"/>
<path fill-rule="evenodd" clip-rule="evenodd" d="M26.9021 170.425C25.2143 169.936 24.3139 167.463 25.1959 165.749C26.078 164.036 28.0729 162.78 31.8072 162.573L39.3492 162.155C41.0627 162.063 45.1759 162.172 46.7459 162.311C48.316 162.45 50.414 163.558 50.5059 165.467C50.5641 166.09 50.4932 166.718 50.2975 167.312C50.1018 167.906 49.7856 168.453 49.3687 168.919C48.9518 169.386 48.4431 169.761 47.8745 170.021C47.306 170.282 46.6897 170.422 46.0644 170.434C42.6089 170.563 28.5889 170.915 26.9003 170.426L26.9021 170.425Z" fill="#EDC152"/>
<path fill-rule="evenodd" clip-rule="evenodd" d="M13.9602 174.465V173.967C13.9988 172.181 15.7896 170.3 18.5516 170.131C21.3137 169.962 27.6232 170.359 30.5508 170.205C33.4784 170.05 34.9427 170.402 36.3959 171.538C36.9813 171.99 37.4276 172.597 37.6836 173.291C37.133 173.915 36.4585 174.418 35.7031 174.767C34.9476 175.117 34.1277 175.306 33.2954 175.321C31.5156 175.25 30.5977 173.212 28.8345 173.33C27.6232 173.411 27.1882 174.547 26.3153 175.201C26.0667 175.364 25.788 175.475 25.4956 175.529C25.2032 175.583 24.9031 175.577 24.6128 175.513C23.1936 175.364 22.5176 173.988 21.2548 173.521C20.7571 173.369 20.2292 173.345 19.7197 173.451C19.49 173.464 19.2636 173.513 19.0483 173.594C18.3825 174.045 17.7552 174.551 17.1729 175.105C16.7434 175.364 16.2427 175.481 15.743 175.437C15.2433 175.394 14.7701 175.193 14.3915 174.864C14.2367 174.743 14.0915 174.609 13.9574 174.465H13.9602Z" fill="#D2416E"/>
<path fill-rule="evenodd" clip-rule="evenodd" d="M24.954 166.394C25.0098 166.171 25.091 165.955 25.1959 165.75C26.0771 164.037 28.073 162.78 31.8072 162.573L39.3492 162.156C41.0627 162.064 45.1759 162.173 46.746 162.312C47.4596 162.362 48.1507 162.583 48.7607 162.956C49.3706 163.33 49.8813 163.846 50.2493 164.459C50.147 164.452 50.0443 164.459 49.944 164.48C47.9508 164.878 47.4716 167.638 45.1833 167.638C44.3642 167.595 43.5808 167.289 42.9501 166.765C42.263 166.274 41.5502 165.364 40.5955 165.483C38.9611 165.687 38.2786 168.183 36.4741 168.011C35.5594 167.877 34.7168 167.438 34.0827 166.765C33.6798 166.392 33.0811 165.719 32.4759 165.719C32.1341 165.701 31.7913 165.715 31.4522 165.761C30.9205 165.867 30.5324 166.497 30.1709 166.834C29.5208 167.505 28.6449 167.912 27.7124 167.976C27.1635 167.936 26.6307 167.773 26.1531 167.499C25.6756 167.226 25.2655 166.848 24.9531 166.395L24.954 166.394Z" fill="#D2416E"/>
<path fill-rule="evenodd" clip-rule="evenodd" d="M39.0807 174.346C39.0598 174 39.0908 173.653 39.1726 173.316C39.5828 171.661 40.2018 170.723 42.6613 170.298C45.5058 169.754 48.3937 169.469 51.2896 169.446C54.7212 169.446 58.9447 169.814 60.2655 170.298C60.9655 170.509 61.5578 170.981 61.9206 171.616C62.2833 172.251 62.3888 173.001 62.2154 173.711C62.2001 173.786 62.1826 173.862 62.163 173.936C61.2307 173.839 60.3321 173.534 59.5334 173.043C58.7187 172.443 57.728 172.129 56.7162 172.152C54.4673 172.422 53.382 175.187 51.2049 175.426C50.2123 175.407 49.2638 175.012 48.5496 174.323C47.9977 173.73 47.3843 172.823 46.4811 172.759C44.8255 172.631 43.9057 174.288 42.5261 174.827C41.9575 174.998 41.3594 175.045 40.7711 174.967C40.1829 174.888 39.618 174.686 39.1138 174.373L39.0843 174.347L39.0807 174.346Z" fill="#D2416E"/>
<path fill-rule="evenodd" clip-rule="evenodd" d="M9.19763 177.409C9.92696 179.427 11.004 181.301 12.38 182.946C13.6511 184.484 16.6587 186.165 18.2058 186.165H29.3018C30.6731 186.165 49.6506 186.165 54.4904 185.614C59.3301 185.062 61.785 184.99 63.0193 183.891C64.2536 182.792 68.2233 177.085 68.2233 177.085C63.4252 177.444 58.6113 177.544 53.8024 177.384C43.9122 177.209 36.3067 177.592 28.7039 177.683C21.1012 177.774 11.7371 176.879 9.19763 177.407V177.409Z" fill="#061428"/>
<path fill-rule="evenodd" clip-rule="evenodd" d="M79.4461 184.408C77.1467 186.941 76.7788 189.103 75.1885 193.344L69.0859 209.587C68.8376 210.248 67.2464 208.415 64.3142 205.347C61.382 202.279 56.912 197.59 53.8933 194.425L49.3644 189.683C49.6144 189.147 49.825 188.593 49.9944 188.027C50.0656 187.465 49.9777 186.894 49.7408 186.38C49.5039 185.865 49.1275 185.427 48.6544 185.116C47.6518 184.331 44.8668 184.022 42.8543 184.02C40.8419 184.017 39.9451 184.393 39.8099 185.079C39.6747 185.765 37.5804 185.57 34.9922 185.758C32.404 185.946 30.1699 185.258 29.1057 186.186C28.0416 187.113 29.5656 188.511 31.6103 189.045L38.56 190.865C40.1098 191.272 44.5035 192.421 44.5035 192.421C44.5035 192.421 45.4986 195.529 46.1977 197.493L50.0487 208.305C51.3511 211.959 55.009 219.67 56.8549 222.328C58.7009 224.986 61.9559 229.254 67.6732 228.651C73.3904 228.048 79.0709 221.255 81.5423 219.251C84.0137 217.247 90.0041 211.309 90.0041 211.309C90.0041 211.309 81.7262 181.877 79.4351 184.405L79.4461 184.408Z" fill="#E88D95"/>
<path fill-rule="evenodd" clip-rule="evenodd" d="M121.811 173.754C124.98 178.813 127.238 191.072 127.238 191.072L124.027 192.423C124.027 192.423 122.486 180.11 121.81 173.752L121.811 173.754Z" fill="#DA6771"/>
<path fill-rule="evenodd" clip-rule="evenodd" d="M82.8438 192.936C83.7635 197.655 84.1434 216.959 84.1434 216.959L90.0115 211.316C90.0115 211.316 81.924 188.214 82.8438 192.936Z" fill="#DA6771"/>
<path fill-rule="evenodd" clip-rule="evenodd" d="M79.4462 184.408C81.6175 182.224 83.9886 180.249 86.5283 178.507C88.2048 177.509 89.9896 176.704 91.8482 176.11L101.795 172.44C101.795 172.44 105.291 170.551 107.59 169.374C109.889 168.198 112.777 167.903 114.686 167.407C116.496 167.098 118.337 167.001 120.17 167.118C121.522 171.848 122.488 176.679 123.06 181.565L124.966 202.971C124.922 204.39 124.668 205.794 124.212 207.139L94.2047 219.254C94.2047 219.254 92.7137 216.403 91.3644 214.132C90.0152 211.861 88.1499 206.281 86.7187 203.506C85.2876 200.731 83.7985 195.065 82.4823 192.147C81.1661 189.228 80.1755 186.027 79.4471 184.408H79.4462Z" fill="#FBDC8E"/>
<path fill-rule="evenodd" clip-rule="evenodd" d="M89.3345 167.431C89.4523 167.332 89.2987 167.746 89.3401 167.895C89.3952 168.079 89.4909 168.263 89.5534 168.447C89.9103 169.52 90.3086 170.595 90.6167 171.682C90.9322 172.793 91.1134 173.944 91.4684 175.045C91.5088 175.171 91.5981 176.046 91.8501 176.11C92.6407 176.409 93.4519 176.65 94.2773 176.833C94.8276 176.892 95.3827 176.892 95.9329 176.833C96.9902 176.777 98.016 176.453 98.9133 175.891C99.8106 175.329 100.55 174.548 101.061 173.621C101.351 173.255 101.598 172.858 101.797 172.436C101.521 171.377 101.136 170.35 100.648 169.371L98.1928 162.826" fill="#E88D95"/>
<path d="M99.3407 145.345C99.468 145.077 99.6903 144.866 99.9642 144.753C102.28 143.402 102.898 147.217 101.513 147.788M100.194 141.103C100.631 141.502 101.206 141.717 101.797 141.701C102.222 141.71 102.635 141.56 102.956 141.28C103.276 141 103.48 140.612 103.529 140.189L100.194 141.103ZM90.5606 143.643C90.6011 143.611 90.4291 143.561 90.4291 143.561C90.4291 143.561 90.6995 143.745 90.8264 143.85C91.1944 144.138 91.6104 144.358 92.0552 144.5C93.6326 144.973 96.0295 144.61 96.0295 142.477L90.5606 143.643Z" stroke="#061428" stroke-width="1.587" stroke-linecap="round" stroke-linejoin="round"/>
<path fill-rule="evenodd" clip-rule="evenodd" d="M102.218 150.526C100.435 151.926 98.2878 152.785 96.0313 153.002C94.4437 153.067 92.8543 152.93 91.301 152.595C91.0901 153.821 91.1605 155.079 91.507 156.274C92.0439 158.2 93.3133 159.839 95.0435 160.841C95.8387 161.284 96.7414 161.497 97.6509 161.457C98.5603 161.417 99.4408 161.125 100.194 160.614C101.626 159.662 102.185 157.974 102.576 156.323C103.115 154.406 102.989 152.364 102.219 150.528L102.218 150.526Z" fill="#DA6771"/>
<path fill-rule="evenodd" clip-rule="evenodd" d="M99.6691 166.766C98.2294 167.748 96.572 168.365 94.8403 168.563C96.4389 169.237 97.2924 169.93 98.73 170.203L101.213 170.677C101.213 170.677 100.149 167.982 99.6654 166.766H99.6691Z" fill="#DA6771"/>
<path d="M122.486 125.42C122.884 124.519 123.511 123.738 124.304 123.155" stroke="#DA6771" stroke-width="1.427" stroke-linecap="round" stroke-linejoin="round"/>
<path d="M32.9082 370.712V370.125L31.5084 368.366L28.3004 364.407L24.8592 360.22C24.8592 360.22 21.5462 357.915 20.6947 357.516C17.5917 356.074 14.5354 354.971 10.8842 354.971C8.63866 354.971 0.245525 355.311 0.228027 356.731C0.228027 358.836 11.9808 366.806 20.6014 370.676C24.3576 370.712 32.9082 370.712 32.9082 370.712Z" fill="#19A5A1"/>
<path d="M31.1289 370.712C19.1662 361.475 -5.24915 310.981 1.00925 292.273C14.3426 299.105 28.9708 322.663 35.8708 342.556C36.236 343.85 36.5281 345.164 36.7457 346.491L39.5454 359.393L40.2453 370.712H31.1289Z" fill="#32CFCB"/>
<path d="M39.2949 370.712C35.2587 367.416 33.9697 357.657 33.9347 354.015C33.8706 347.218 34.9088 342.21 40.6889 334.733C46.469 327.255 44.9117 314.846 52.6108 306.483C60.3098 298.12 65.3725 295.792 74.4831 295.792C83.5936 295.792 86.4808 310.641 86.4574 314.377C86.3524 329.437 76.9094 331.566 71.1585 338.762C66.9765 343.981 66.6499 348.25 65.3842 350.69C58.5834 363.821 53.0774 368.782 48.9945 370.712" fill="#73E5E2"/>
<path d="M41.4996 369.621C41.6163 343.916 68.5571 305.31 74.3139 299.522" stroke="white" stroke-width="0.4" stroke-linecap="round" stroke-linejoin="round"/>
<path d="M42.9753 357.956C39.9948 354.69 37.2826 345.43 37.6909 343.025" stroke="white" stroke-width="0.4" stroke-linecap="round" stroke-linejoin="round"/>
<path d="M35.3403 368.512C31.1175 360.971 11.0824 324.282 3.58752 297.252" stroke="white" stroke-width="0.4" stroke-linecap="round" stroke-linejoin="round"/>
<path d="M48.9946 370.712H61.5347L51.036 410.033H22.9636L12.634 370.712H48.9946Z" fill="#061428"/>
<path d="M4.30505 357.534C10.4235 357.956 18.1225 358.238 23.5819 361.962" stroke="white" stroke-width="0.4" stroke-linecap="round" stroke-linejoin="round"/>
<path d="M184.347 258.842L136.064 409.902" stroke="#061428" stroke-width="4" stroke-miterlimit="10" stroke-linecap="round"/>
<path d="M184.347 258.842L232.617 409.902" stroke="#061428" stroke-width="4" stroke-miterlimit="10" stroke-linecap="round"/>
<path d="M151.913 360.311L205.739 325.807" stroke="#061428" stroke-width="2" stroke-miterlimit="10" stroke-linecap="round"/>
<path d="M184.347 277.836C231.807 277.836 270.28 269.332 270.28 258.842C270.28 248.351 231.807 239.847 184.347 239.847C136.888 239.847 98.4144 248.351 98.4144 258.842C98.4144 269.332 136.888 277.836 184.347 277.836Z" fill="#E8EBF0"/>
<path d="M162.738 325.807L216.55 360.311" stroke="#061428" stroke-width="2" stroke-miterlimit="10" stroke-linecap="round"/>
<path d="M211.439 102.366C211.439 99.747 209.316 97.6236 206.696 97.6236C204.077 97.6236 201.953 99.747 201.953 102.366V118.737C201.953 121.357 204.077 123.48 206.696 123.48C209.316 123.48 211.439 121.357 211.439 118.737V102.366Z" fill="#061428"/>
<path d="M206.696 151C211.951 151 216.212 146.74 216.212 141.485C216.212 136.229 211.951 131.969 206.696 131.969C201.441 131.969 197.181 136.229 197.181 141.485C197.181 146.74 201.441 151 206.696 151Z" fill="#FBDC8E"/>
<path d="M206.696 112.796C202.928 112.795 199.197 113.536 195.715 114.977C192.234 116.419 189.07 118.532 186.405 121.196C183.741 123.86 181.627 127.023 180.185 130.504C178.742 133.985 178 137.716 178 141.485H235.385C235.385 133.876 232.362 126.579 226.982 121.199C221.602 115.818 214.305 112.796 206.696 112.796Z" fill="#A0DEFF"/>
<path d="M206.696 103.086V-1" stroke="#061428" stroke-width="2" stroke-linecap="round" stroke-linejoin="round"/>
</svg>
